<!-- Exported by Character Map UWP -->
<svg height="100%" viewBox="127 220 841 830" width="100%" xmlns="http://www.w3.org/2000/svg" xmlns:xlink="http://www.w3.org/1999/xlink">
  <path d="M288.768,219.136C243.712,219.136 205.483,234.837 174.08,266.24C142.677,297.643 126.976,335.872 126.976,380.928L126.976,827.392C128.341,872.448 144.384,910.677 175.104,942.08C205.824,973.483 243.712,989.184 288.768,989.184L448.512,989.184C433.493,968.704 421.205,946.859 411.648,923.648L288.768,923.648C261.461,923.648 238.592,914.432 220.16,896C201.728,877.568 192.512,854.699 192.512,827.392L192.512,411.648L831.488,411.648L831.488,503.808C854.699,513.365 876.544,525.653 897.024,540.672L897.024,380.928C897.024,335.872 881.323,297.643 849.92,266.24C818.517,234.837 780.288,219.136 735.232,219.136ZM827.392,348.16L196.608,348.16C203.435,329.045 215.381,313.685 232.448,302.08C249.515,290.475 268.288,284.672 288.768,284.672L735.232,284.672C755.712,284.672 774.485,290.475 791.552,302.08C808.619,313.685 820.565,329.045 827.392,348.16ZM512,540.672L512,507.904C512,499.712 508.928,492.203 502.784,485.376C496.64,478.549 488.789,475.136 479.232,475.136L288.768,475.136C279.211,475.136 271.36,478.549 265.216,485.376C259.072,492.203 256,499.712 256,507.904L256,827.392C256,836.949 259.072,844.8 265.216,850.944C271.36,857.088 279.211,860.16 288.768,860.16L391.168,860.16C387.072,839.68 385.024,818.517 385.024,796.672L319.488,796.672L319.488,540.672L448.512,540.672L448.512,604.16C466.261,579.584 487.424,558.421 512,540.672ZM534.528,1005.57L534.528,1001.47C545.451,965.973 541.696,932.523 523.264,901.12C504.832,869.717 477.867,849.92 442.368,841.728C438.272,811.691 438.955,782.336 444.416,753.664C479.915,744.107 506.539,723.627 524.288,692.224C542.037,660.821 546.133,628.053 536.576,593.92C559.787,574.805 585.045,559.104 612.352,546.816C636.928,574.123 667.648,587.776 704.512,587.776C741.376,587.776 772.096,574.123 796.672,546.816L800.768,542.72C828.075,553.643 852.651,567.979 874.496,585.728L872.448,591.872C862.891,626.005 866.987,659.115 884.736,691.2C902.485,723.285 929.109,743.424 964.608,751.616C968.704,780.288 968.021,809.643 962.56,839.68C928.427,847.872 902.144,867.669 883.712,899.072C865.28,930.475 860.843,963.925 870.4,999.424C848.555,1018.54 823.979,1033.56 796.672,1044.48C770.731,1018.54 739.669,1005.57 703.488,1005.57C667.307,1005.57 636.245,1018.54 610.304,1044.48L606.208,1048.58C580.267,1039.02 556.373,1024.68 534.528,1005.57ZM667.648,860.16C684.032,869.717 701.781,871.765 720.896,866.304C740.011,860.843 754.688,849.237 764.928,831.488C775.168,813.739 777.899,795.307 773.12,776.192C768.341,757.077 757.419,742.4 740.352,732.16C723.285,721.92 705.195,719.531 686.08,724.992C666.965,730.453 652.288,742.059 642.048,759.808C631.808,777.557 629.077,796.331 633.856,816.128C638.635,835.925 649.899,850.603 667.648,860.16Z" fill="#599eee" fill-opacity="1">
  </path>
</svg>